<svg id="Layer_1" data-name="Layer 1" xmlns="http://www.w3.org/2000/svg" viewBox="0 0 627.18 175.68"><defs><style>.cls-1{fill:#1a70b3;}.cls-2{fill:#35ac46;}.cls-3{fill:#00aa9c;}.cls-4{fill:#006e3c;}.cls-5{fill:#009659;}.cls-6{fill:#fff;}</style></defs><path class="cls-1" d="M269,344.38l29.67-56.52h0a34,34,0,1,0-59.86-32.22h0l-8.58,16.09v72.66Z" transform="translate(-80.22 -236.9)"/><path class="cls-2" d="M230.24,344.29V271.72h0l-8.57-16.08h0a34.18,34.18,0,0,0-60.27,0h0l-8.58,16.1V344.3Z" transform="translate(-80.22 -236.9)"/><path class="cls-3" d="M114.06,344.38,84.39,287.86h0a34,34,0,1,1,59.86-32.22h0l8.58,16.09v72.66Z" transform="translate(-80.22 -236.9)"/><path class="cls-4" d="M191.52,344.3l24.15,45.29h0a17,17,0,0,0,29.69-.18h0l23.64-45-38.75-72.67h0l-38.69,72.57Z" transform="translate(-80.22 -236.9)"/><path class="cls-5" d="M191.53,344.3l-24.15,45.29h0a17,17,0,0,1-29.69-.18h0l-23.64-45,38.75-72.67h0l38.69,72.57Z" transform="translate(-80.22 -236.9)"/><path class="cls-3" d="M143.14,271.72" transform="translate(-80.22 -236.9)"/><path class="cls-6" d="M361.79,266.11a94.61,94.61,0,0,1,2.39,11.62,50.76,50.76,0,0,1,1.53-11.62l6.18-25.76h10L369.5,287.82h-9.76l-8.5-30.27a35.52,35.52,0,0,1-1.46-8.57,40,40,0,0,1-1.4,8.57l-8.56,30.27h-9.76l-12.42-47.47H327.8L334,266.71a63.56,63.56,0,0,1,1.33,10.69,99.19,99.19,0,0,1,2.46-11.16l7-25.89h10Z" transform="translate(-80.22 -236.9)"/><path class="cls-6" d="M389.47,237.56a5.42,5.42,0,1,1,0,10.83,5.5,5.5,0,0,1-5.37-5.45A5.44,5.44,0,0,1,389.47,237.56ZM384.89,256h9.23v31.8h-9.23Z" transform="translate(-80.22 -236.9)"/><path class="cls-6" d="M400.16,237.56h9.23v50.26h-9.23V237.56Z" transform="translate(-80.22 -236.9)"/><path class="cls-6" d="M438.67,287.82l.13-4.58c-2.52,4.05-5.91,5.84-11,5.84-8.23,0-14.07-6.57-14.07-17.13,0-10.75,5.38-17.06,14.41-17.06,4.71,0,8,2.13,11,6.64a41.23,41.23,0,0,1-.33-5.84V237.56h8.76v50.26Zm-7.44-25.23c-5.05,0-8.1,3.46-8.1,9.23s3,9.16,8,9.16,8-3.32,8-9.09S435.94,262.59,431.23,262.59Z" transform="translate(-80.22 -236.9)"/><path class="cls-6" d="M454,237.56h9.23v50.26H454V237.56Z" transform="translate(-80.22 -236.9)"/><path class="cls-6" d="M473.85,237.56a5.41,5.41,0,0,1,5.44,5.38,5.41,5.41,0,1,1-5.44-5.38ZM469.27,256h9.23v31.8h-9.23Z" transform="translate(-80.22 -236.9)"/><path class="cls-6" d="M486.66,263.26h-4.12V256h4.12v-7.17c0-8.3,3.39-11.95,12.68-11.95a20.69,20.69,0,0,1,4.32.66v7.37a6.74,6.74,0,0,0-3.26-.86c-3.52,0-4.51,1.86-4.51,5.71V256h5.91v7.24h-5.91v24.56h-9.23Z" transform="translate(-80.22 -236.9)"/><path class="cls-6" d="M513,274.21c.73,4.58,3.32,6.84,7.76,6.84a8.12,8.12,0,0,0,7.44-3.92l7.44,3.72c-3.46,5.58-8.3,8.23-15.08,8.23-10.49,0-16.73-6.83-16.73-17,0-9.83,6.84-17.13,16.8-17.13s16.4,6.31,16.4,16.86c0,.8-.07,1.6-.13,2.39Zm7.63-11.68c-4.12,0-6.64,2.05-7.37,6.1h14.47C527.22,264.65,524.83,262.53,520.65,262.53Z" transform="translate(-80.22 -236.9)"/><path class="cls-6" d="M346.72,302.53c-10.16,0-16.6,6.57-16.6,16.73,0,9.83,5.78,16.27,15.61,16.27a20.22,20.22,0,0,0,14.2-5.51l-.06,10.42a27.71,27.71,0,0,1-14.28,3.79c-15.33,0-25.89-10.69-25.89-25,0-14,10.29-24.89,26.09-24.89a32.76,32.76,0,0,1,14.54,3.31L360,307.84A19.15,19.15,0,0,0,346.72,302.53Z" transform="translate(-80.22 -236.9)"/><path class="cls-6" d="M380.05,344.23c-10.63,0-17.8-7.57-17.8-17.07s7.37-17.06,17.8-17.06,17.72,7.37,17.72,17.06S390.47,344.23,380.05,344.23ZM380,318.6c-5.18,0-8.36,3.38-8.36,8.5s3.25,8.56,8.36,8.56,8.37-3.39,8.37-8.56S385.16,318.6,380,318.6Z" transform="translate(-80.22 -236.9)"/><path class="cls-6" d="M401.75,311.16h9v5c3.32-4.11,7-6,11.76-6,4.91,0,8.23,1.66,10.15,5,1.26,2.32,1.33,4.91,1.33,8.23V343h-9.23V327.23c0-6-.53-9.63-6-9.63a7.41,7.41,0,0,0-6.17,3.06c-1.53,2-1.6,4.31-1.6,7V343h-9.23Z" transform="translate(-80.22 -236.9)"/><path class="cls-6" d="M444.44,333.74c.47,2.39,2.66,4,5.78,4s4.84-1.2,4.84-3.12c0-2.86-2.59-3.06-6.83-4.65-6.51-2.46-10-4.78-10-9.56,0-6,5-10.42,13.34-10.42,5.78,0,10.09,2.45,11.95,6.57l-6.77,3.39c-.73-2.39-2.59-3.66-5.31-3.66s-4.58,1.27-4.58,3.06c0,2.59,2.79,3.25,7.43,4.78,6.51,2.12,9.63,4.78,9.63,9.82,0,6.11-5,10.3-13.54,10.3-6.71,0-11.56-2.66-13.08-6.84Z" transform="translate(-80.22 -236.9)"/><path class="cls-6" d="M476.24,329.35c.73,4.58,3.32,6.84,7.77,6.84a8.11,8.11,0,0,0,7.43-3.92l7.44,3.72c-3.45,5.58-8.3,8.24-15.07,8.24-10.49,0-16.73-6.84-16.73-17,0-9.83,6.84-17.13,16.8-17.13s16.39,6.31,16.39,16.86c0,.8-.06,1.6-.13,2.39Zm7.64-11.68c-4.12,0-6.64,2.06-7.37,6.11H491C490.45,319.79,488.06,317.67,483.88,317.67Z" transform="translate(-80.22 -236.9)"/><path class="cls-6" d="M523.51,310.1a25.08,25.08,0,0,1,3.45.4l-1.39,10a10.66,10.66,0,0,0-4.32-.87c-5.91,0-7.9,3-7.9,9.37v14h-9.23v-31.8h9.1l-.2,8.17C514.88,313.15,518.33,310.1,523.51,310.1Z" transform="translate(-80.22 -236.9)"/><path class="cls-6" d="M528.22,311.16h10.69l5.38,16.53a34.93,34.93,0,0,1,1.59,7.11,39.53,39.53,0,0,1,1.66-7.44l5.44-16.2h10.49L550.4,343h-9.23Z" transform="translate(-80.22 -236.9)"/><path class="cls-6" d="M587.37,343l.14-4.58c-2.53,4.05-5.91,5.85-11,5.85-8.23,0-14.07-6.58-14.07-17.13s5.37-17,14.4-17a11.65,11.65,0,0,1,10.69,6.31v-5.25h8.77V343Zm-7.43-25.22c-5.05,0-8.1,3.51-8.1,9.29s3,9.1,8,9.1,8-3.32,8-9.1S584.65,317.74,579.94,317.74Z" transform="translate(-80.22 -236.9)"/><path class="cls-6" d="M604.5,318.4h-4.45v-7.24h4.45V300.61h9.23v10.55h4.45v7.24h-4.45V343H604.5Z" transform="translate(-80.22 -236.9)"/><path class="cls-6" d="M627.14,292.71a5.41,5.41,0,0,1,5.44,5.37,5.41,5.41,0,1,1-5.44-5.37Zm-4.59,18.45h9.23V343h-9.23Z" transform="translate(-80.22 -236.9)"/><path class="cls-6" d="M653.42,344.23c-10.62,0-17.79-7.57-17.79-17.07S643,310.1,653.42,310.1s17.73,7.37,17.73,17.06S663.85,344.23,653.42,344.23Zm-.06-25.63c-5.18,0-8.37,3.38-8.37,8.5s3.26,8.56,8.37,8.56,8.36-3.39,8.36-8.56S658.54,318.6,653.36,318.6Z" transform="translate(-80.22 -236.9)"/><path class="cls-6" d="M675.13,311.16h9v5c3.32-4.11,7-6,11.75-6,4.92,0,8.24,1.66,10.16,5,1.26,2.32,1.33,4.91,1.33,8.23V343h-9.23V327.23c0-6-.53-9.63-6-9.63a7.44,7.44,0,0,0-6.18,3.06c-1.52,2-1.59,4.31-1.59,7V343h-9.23Z" transform="translate(-80.22 -236.9)"/><path class="cls-6" d="M326.61,385.69a9.24,9.24,0,0,0,8.76,5.64c4.91,0,7.7-2.52,7.7-6.24,0-4.18-3.92-5-10.42-8.43-7-3.65-11-7.1-11-13.74,0-7.5,6.44-13.41,16.73-13.41,5.71,0,9.76,1.92,12.94,6.24l-6,5.71a7.41,7.41,0,0,0-7.11-4.12c-4.11,0-6.7,2.33-6.7,5.45,0,4.38,4.25,5.44,9.56,7.83,8,3.65,11.82,8.17,11.82,14.14,0,8.57-6.18,14.61-16.8,14.61-7.37,0-12.62-2.66-15.14-7.31Z" transform="translate(-80.22 -236.9)"/><path class="cls-6" d="M373.41,399.37c-10.62,0-17.79-7.57-17.79-17.07s7.37-17.06,17.79-17.06,17.73,7.37,17.73,17.06S383.83,399.37,373.41,399.37Zm-.07-25.63c-5.18,0-8.36,3.39-8.36,8.5s3.25,8.56,8.36,8.56,8.37-3.38,8.37-8.56S378.52,373.74,373.34,373.74Z" transform="translate(-80.22 -236.9)"/><path class="cls-6" d="M410.92,399.37c-10,0-17-7-17-17.2s7.1-16.93,17.13-16.93a16.28,16.28,0,0,1,8.37,2l-.07,9.3a10.2,10.2,0,0,0-7.44-3.12c-5,0-8.56,3.32-8.56,8.7s3.32,8.76,8.83,8.76a8.8,8.8,0,0,0,7.17-3.32l.07,9.63A16.16,16.16,0,0,1,410.92,399.37Z" transform="translate(-80.22 -236.9)"/><path class="cls-6" d="M429.44,347.85a5.41,5.41,0,0,1,5.44,5.38,5.41,5.41,0,1,1-5.44-5.38Zm-4.58,18.45h9.22v31.81h-9.22Z" transform="translate(-80.22 -236.9)"/><path class="cls-6" d="M447,384.5c.73,4.58,3.32,6.83,7.77,6.83a8.12,8.12,0,0,0,7.43-3.91l7.44,3.71c-3.45,5.58-8.3,8.24-15.07,8.24-10.49,0-16.73-6.84-16.73-17,0-9.82,6.84-17.13,16.79-17.13s16.4,6.31,16.4,16.87c0,.79-.06,1.59-.13,2.39Zm7.63-11.69c-4.11,0-6.63,2.06-7.36,6.11h14.47C461.24,374.94,458.85,372.81,454.66,372.81Z" transform="translate(-80.22 -236.9)"/><path class="cls-6" d="M477.37,373.54h-4.45V366.3h4.45V355.75h9.23V366.3H491v7.24H486.6v24.57h-9.23Z" transform="translate(-80.22 -236.9)"/><path class="cls-6" d="M493.1,366.3h10.69l5.51,14.54a27.68,27.68,0,0,1,1.46,7.11,46.22,46.22,0,0,1,2-7.44l4.85-14.21h10.56l-18.93,46.28H499l6.9-16.93Z" transform="translate(-80.22 -236.9)"/></svg>